# xmcd CD database file
#
# Track frame offsets:
#	150
#	17052
#	36148
#	52812
#	70702
#	84985
#	98906
#	120101
#	143388
#	159719
#	185464
#	205075
#
# Disc length: 2996 seconds
#
# Revision: 2
# Processed by: cddbd v1.5.2PL0 Copyright (c) Steve Scherf et al.
# Submitted via: CDex 1.70beta3
#
DISCID=8a0bb20c
DTITLE=PE'Z - 日本のジャズ -SAMURAI SPIRIT-
DYEAR=2006
DGENRE=Jazz
TTITLE0=01 用心棒
TTITLE1=鈴懸の径
TTITLE2=銀座カンカン娘
TTITLE3=雪國
TTITLE4=どんたく
TTITLE5=おもちゃのチャチャチャ
TTITLE6=ソーラン節
TTITLE7=ともだち
TTITLE8=小春おばさん
TTITLE9=花
TTITLE10=みずいろの雨
TTITLE11=また逢う日まで
EXTD=YEAR: 2006
EXTT0=
EXTT1=
EXTT2=
EXTT3=
EXTT4=
EXTT5=
EXTT6=
EXTT7=
EXTT8=
EXTT9=
EXTT10=
EXTT11=
PLAYORDER=
